<?xml version="1.0" encoding="UTF-8"?>
<svg width="27px" height="28px" viewBox="0 0 27 28" version="1.1" xmlns="http://www.w3.org/2000/svg" xmlns:xlink="http://www.w3.org/1999/xlink">
    <title>Icon_Calendry</title>
    <g id="Desktop" stroke="none" stroke-width="1" fill="none" fill-rule="evenodd">
        <g id="01.01_Home" transform="translate(-1361.000000, -631.000000)" fill="#0D9CF8">
            <g id="Group-3" transform="translate(1328.000000, 618.000000)">
                <g id="Button/FAB-medium/Plus/Default" transform="translate(18.000000, 0.000000)">
                    <path d="M38.5424593,37.1480741 L38.5424593,22.4123704 L17.6666074,22.4123704 L17.6666074,37.1480741 C17.6666074,37.748963 18.1554963,38.2377037 18.7563852,38.2377037 L37.4528296,38.2377037 C38.0535704,38.2377037 38.5424593,37.748963 38.5424593,37.1480741 M17.6666074,18.4516296 L17.6666074,19.7457037 L38.5424593,19.7457037 L38.5424593,18.4516296 C38.5424593,17.8508889 38.0535704,17.362 37.4528296,17.362 L36.5546074,17.362 L36.5546074,17.4974074 C36.5546074,18.2338519 35.9577185,18.8307407 35.2212741,18.8307407 C34.4848296,18.8307407 33.8879407,18.2338519 33.8879407,17.4974074 L33.8879407,17.362 L22.3885333,17.362 L22.3885333,17.4974074 C22.3885333,18.2338519 21.7916444,18.8307407 21.0552,18.8307407 C20.3189037,18.8307407 19.7218667,18.2338519 19.7218667,17.4974074 L19.7218667,17.362 L18.7563852,17.362 C18.1554963,17.362 17.6666074,17.8508889 17.6666074,18.4516296 M41.2091259,18.4516296 L41.2091259,37.1480741 C41.2091259,39.2193333 39.5239407,40.9043704 37.4528296,40.9043704 L18.7563852,40.9043704 C16.6851259,40.9043704 14.9999407,39.2193333 14.9999407,37.1480741 L14.9999407,18.4516296 C14.9999407,16.3803704 16.6851259,14.6953333 18.7563852,14.6953333 L19.7218667,14.6953333 L19.7218667,14.3332593 C19.7218667,13.5968148 20.3189037,12.9999259 21.0552,12.9999259 C21.7916444,12.9999259 22.3885333,13.5968148 22.3885333,14.3332593 L22.3885333,14.6953333 L33.8879407,14.6953333 L33.8879407,14.3332593 C33.8879407,13.5968148 34.4848296,12.9999259 35.2212741,12.9999259 C35.9577185,12.9999259 36.5546074,13.5968148 36.5546074,14.3332593 L36.5546074,14.6953333 L37.4528296,14.6953333 C39.5239407,14.6953333 41.2091259,16.3803704 41.2091259,18.4516296 M30.4368296,33.4384444 C29.6372741,33.4384444 28.9869037,34.088963 28.9869037,34.8883704 C28.9869037,35.6879259 29.6372741,36.3384444 30.4368296,36.3384444 C31.2363852,36.3384444 31.8867556,35.6879259 31.8867556,34.8883704 C31.8867556,34.088963 31.2363852,33.4384444 30.4368296,33.4384444 M30.4368296,28.8237778 C29.6372741,28.8237778 28.9869037,29.4741481 28.9869037,30.2737037 C28.9869037,31.0732593 29.6372741,31.7236296 30.4368296,31.7236296 C31.2363852,31.7236296 31.8867556,31.0732593 31.8867556,30.2737037 C31.8867556,29.4741481 31.2363852,28.8237778 30.4368296,28.8237778 M35.0514963,28.8237778 C34.2520889,28.8237778 33.6015704,29.4741481 33.6015704,30.2737037 C33.6015704,31.0732593 34.2520889,31.7236296 35.0516444,31.7236296 C35.8510519,31.7236296 36.5015704,31.0732593 36.5015704,30.2737037 C36.5015704,29.4741481 35.8510519,28.8237778 35.0514963,28.8237778 M35.0514963,24.208963 C34.2520889,24.208963 33.6015704,24.8594815 33.6015704,25.6588889 C33.6015704,26.4584444 34.2520889,27.108963 35.0516444,27.108963 C35.8510519,27.108963 36.5015704,26.4584444 36.5015704,25.6588889 C36.5015704,24.8594815 35.8510519,24.208963 35.0514963,24.208963 M30.4368296,24.208963 C29.6372741,24.208963 28.9869037,24.8594815 28.9869037,25.6588889 C28.9869037,26.4584444 29.6372741,27.108963 30.4368296,27.108963 C31.2363852,27.108963 31.8867556,26.4584444 31.8867556,25.6588889 C31.8867556,24.8594815 31.2363852,24.208963 30.4368296,24.208963 M25.822163,24.208963 C25.0226074,24.208963 24.3720889,24.8594815 24.3720889,25.6588889 C24.3720889,26.4584444 25.0226074,27.108963 25.822163,27.108963 C26.6215704,27.108963 27.2720889,26.4584444 27.2720889,25.6588889 C27.2720889,24.8594815 26.6215704,24.208963 25.822163,24.208963 M21.2073481,33.4384444 C20.4077926,33.4384444 19.7574222,34.088963 19.7574222,34.8883704 C19.7574222,35.6879259 20.4077926,36.3384444 21.2073481,36.3384444 C22.0069037,36.3384444 22.6572741,35.6879259 22.6572741,34.8883704 C22.6572741,34.088963 22.0069037,33.4384444 21.2073481,33.4384444 M21.2073481,28.8237778 C20.4077926,28.8237778 19.7574222,29.4741481 19.7574222,30.2737037 C19.7574222,31.0732593 20.4077926,31.7236296 21.2073481,31.7236296 C22.0069037,31.7236296 22.6572741,31.0732593 22.6572741,30.2737037 C22.6572741,29.4741481 22.0069037,28.8237778 21.2073481,28.8237778 M25.822163,33.4384444 C25.0226074,33.4384444 24.3720889,34.088963 24.3720889,34.8883704 C24.3720889,35.6879259 25.0226074,36.3384444 25.822163,36.3384444 C26.6215704,36.3384444 27.2720889,35.6879259 27.2720889,34.8883704 C27.2720889,34.088963 26.6215704,33.4384444 25.822163,33.4384444 M27.2720889,30.2737037 C27.2720889,31.0732593 26.6215704,31.7236296 25.822163,31.7236296 C25.0226074,31.7236296 24.3720889,31.0732593 24.3720889,30.2737037 C24.3720889,29.4741481 25.0226074,28.8237778 25.822163,28.8237778 C26.6215704,28.8237778 27.2720889,29.4741481 27.2720889,30.2737037" id="Icon_Calendry"></path>
                </g>
            </g>
        </g>
    </g>
</svg>