<svg width="27" height="28" viewBox="0 0 27 28" fill="none" xmlns="http://www.w3.org/2000/svg">
<path fill-rule="evenodd" clip-rule="evenodd" d="M23.5425 24.148V9.41232H2.66661V24.148C2.66661 24.7489 3.15549 25.2377 3.75638 25.2377H22.4528C23.0536 25.2377 23.5425 24.7489 23.5425 24.148ZM2.66661 5.45158V6.74566H23.5425V5.45158C23.5425 4.85084 23.0536 4.36195 22.4528 4.36195H21.5546V4.49736C21.5546 5.2338 20.9577 5.83069 20.2213 5.83069C19.4848 5.83069 18.8879 5.2338 18.8879 4.49736V4.36195H7.38853V4.49736C7.38853 5.2338 6.79164 5.83069 6.0552 5.83069C5.3189 5.83069 4.72186 5.2338 4.72186 4.49736V4.36195H3.75638C3.15549 4.36195 2.66661 4.85084 2.66661 5.45158ZM26.2091 5.45158V24.148C26.2091 26.2193 24.5239 27.9043 22.4528 27.9043H3.75638C1.68512 27.9043 -6.10352e-05 26.2193 -6.10352e-05 24.148V5.45158C-6.10352e-05 3.38032 1.68512 1.69529 3.75638 1.69529H4.72186V1.33321C4.72186 0.596767 5.3189 -0.00012207 6.0552 -0.00012207C6.79164 -0.00012207 7.38853 0.596767 7.38853 1.33321V1.69529H18.8879V1.33321C18.8879 0.596767 19.4848 -0.00012207 20.2213 -0.00012207C20.9577 -0.00012207 21.5546 0.596767 21.5546 1.33321V1.69529H22.4528C24.5239 1.69529 26.2091 3.38032 26.2091 5.45158ZM15.4368 20.4384C14.6373 20.4384 13.9869 21.0889 13.9869 21.8883C13.9869 22.6879 14.6373 23.3384 15.4368 23.3384C16.2364 23.3384 16.8868 22.6879 16.8868 21.8883C16.8868 21.0889 16.2364 20.4384 15.4368 20.4384ZM15.4368 15.8237C14.6373 15.8237 13.9869 16.4741 13.9869 17.2737C13.9869 18.0732 14.6373 18.7236 15.4368 18.7236C16.2364 18.7236 16.8868 18.0732 16.8868 17.2737C16.8868 16.4741 16.2364 15.8237 15.4368 15.8237ZM20.0515 15.8237C19.2521 15.8237 18.6016 16.4741 18.6016 17.2737C18.6016 18.0732 19.2521 18.7236 20.0516 18.7236C20.851 18.7236 21.5016 18.0732 21.5016 17.2737C21.5016 16.4741 20.851 15.8237 20.0515 15.8237ZM20.0515 11.2089C19.2521 11.2089 18.6016 11.8594 18.6016 12.6588C18.6016 13.4584 19.2521 14.1089 20.0516 14.1089C20.851 14.1089 21.5016 13.4584 21.5016 12.6588C21.5016 11.8594 20.851 11.2089 20.0515 11.2089ZM15.4368 11.2089C14.6373 11.2089 13.9869 11.8594 13.9869 12.6588C13.9869 13.4584 14.6373 14.1089 15.4368 14.1089C16.2364 14.1089 16.8868 13.4584 16.8868 12.6588C16.8868 11.8594 16.2364 11.2089 15.4368 11.2089ZM10.8222 11.2089C10.0226 11.2089 9.37209 11.8594 9.37209 12.6588C9.37209 13.4584 10.0226 14.1089 10.8222 14.1089C11.6216 14.1089 12.2721 13.4584 12.2721 12.6588C12.2721 11.8594 11.6216 11.2089 10.8222 11.2089ZM6.20735 20.4384C5.40779 20.4384 4.75742 21.0889 4.75742 21.8883C4.75742 22.6879 5.40779 23.3384 6.20735 23.3384C7.0069 23.3384 7.65727 22.6879 7.65727 21.8883C7.65727 21.0889 7.0069 20.4384 6.20735 20.4384ZM6.20735 15.8237C5.40779 15.8237 4.75742 16.4741 4.75742 17.2737C4.75742 18.0732 5.40779 18.7236 6.20735 18.7236C7.0069 18.7236 7.65727 18.0732 7.65727 17.2737C7.65727 16.4741 7.0069 15.8237 6.20735 15.8237ZM10.8222 20.4384C10.0226 20.4384 9.37209 21.0889 9.37209 21.8883C9.37209 22.6879 10.0226 23.3384 10.8222 23.3384C11.6216 23.3384 12.2721 22.6879 12.2721 21.8883C12.2721 21.0889 11.6216 20.4384 10.8222 20.4384ZM12.2721 17.2737C12.2721 18.0732 11.6216 18.7236 10.8222 18.7236C10.0226 18.7236 9.37209 18.0732 9.37209 17.2737C9.37209 16.4741 10.0226 15.8237 10.8222 15.8237C11.6216 15.8237 12.2721 16.4741 12.2721 17.2737Z" fill="white"/>
</svg>
