<?xml version="1.0" encoding="UTF-8"?>
<svg width="20px" height="14px" viewBox="0 0 20 14" version="1.1" xmlns="http://www.w3.org/2000/svg" xmlns:xlink="http://www.w3.org/1999/xlink">
    <title>Icon/Small/Bookmark/Checked</title>
    <g id="Symbols" stroke="none" stroke-width="1" fill="none" fill-rule="evenodd">
        <g id="Footer-mobile" transform="translate(-26.000000, -407.000000)" fill="#FFFFFF">
            <g id="Component/List/1-line/Photo-text-checkbox" transform="translate(24.000000, 389.000000)">
                <g id="Combined-Shape" transform="translate(0.000000, 13.000000)">
                    <path d="M22,8.00041553 L22,19 L2,19 L2,8 C4.58875,10.2501133 9.18708333,14.2467135 9.69541667,14.68801 C10.6441667,15.5120127 11.6233333,15.6009368 12,15.6009368 C12.3770833,15.6009368 13.3566667,15.5120127 14.305,14.6884255 C14.6478295,14.390807 16.8509564,12.4759035 19.0431883,10.5704368 L19.4959843,10.1768706 C20.3988102,9.39214182 21.2776744,8.62823817 22,8.00041553 L22,8.00041553 Z M22,5 L22,6.40008764 C21.0931667,7.14832603 19.6402,8.34699036 18.1867267,9.54598282 L17.7029652,9.94504171 C15.6934516,11.6026926 13.7999074,13.1645048 13.4841667,13.4245837 C12.8541667,13.9439965 12.23625,14 12,14 C11.76375,14 11.14625,13.9439965 10.5158333,13.4241893 C10.187463,13.1537073 8.15254033,11.4752704 6.05543002,9.74534637 L5.57112603,9.34583657 C4.20004486,8.21480125 2.8564537,7.10636284 2,6.39969325 L2,6.39969325 L2,5 L22,5 Z"></path>
                </g>
            </g>
        </g>
    </g>
</svg>