<?xml version="1.0" encoding="UTF-8"?>
<svg width="88px" height="88px" viewBox="0 0 88 88" version="1.1" xmlns="http://www.w3.org/2000/svg" xmlns:xlink="http://www.w3.org/1999/xlink">
    <title>Icon/Large+/Quotation mark/Positive</title>
    <defs>
        <polygon id="path-1" points="0 0.000369677228 88.2401943 0.000369677228 88.2401943 70.8679029 0 70.8679029"></polygon>
    </defs>
    <g id="Icon/Large+/Quotation-mark/Positive" stroke="none" stroke-width="1" fill="none" fill-rule="evenodd">
        <g id="Group-3" transform="translate(0.000000, 9.000000)">
            <mask id="mask-2" fill="white">
                <use xlink:href="#path-1"></use>
            </mask>
            <g id="Clip-2"></g>
            <path d="M66.9096914,28.2068971 C60.9644914,28.2068971 55.5848229,30.6582114 51.71256,34.5955714 C52.4265943,28.9453429 54.1832,24.0569543 57.65776,19.0241314 C64.0281257,9.79864571 72.6199314,6.29662286 78.04232,6.10133143 C79.7267086,6.04030286 81.0428914,4.62545714 80.9818629,2.94208571 C80.9208343,1.25668 79.4948,-0.06052 77.8226171,0.00254285714 C70.6609143,0.25988 60.2819886,4.48204 52.6361257,15.5566914 C45.2821829,26.2061771 44.5010171,36.3074229 45.6330971,51.2228057 C45.6392,51.3133314 45.6636114,51.3987714 45.6778514,51.4862457 C46.6665143,62.3371257 55.8055429,70.8679029 66.9096914,70.8679029 C78.6709143,70.8679029 88.2401943,61.29964 88.2401943,49.5374 C88.2401943,37.7761771 78.6709143,28.2068971 66.9096914,28.2068971 M43.0281943,49.5374 C43.0281943,61.29964 33.4589143,70.8679029 21.6976914,70.8679029 C10.5935429,70.8679029 1.45451429,62.3371257 0.465851429,51.4862457 C0.451611429,51.3987714 0.4272,51.3133314 0.42008,51.2228057 C-0.710982857,36.3074229 0.0701828571,26.2061771 7.42412571,15.5566914 C15.0699886,4.48204 25.4478971,0.25988 32.6106171,0.00254285714 C34.2909371,-0.06052 35.7098514,1.25668 35.7698629,2.94208571 C35.8308914,4.62545714 34.5147086,6.04030286 32.83032,6.10133143 C27.4079314,6.29662286 18.8161257,9.79864571 12.44576,19.0241314 C8.9712,24.0569543 7.21459429,28.9453429 6.50056,34.5955714 C10.3728229,30.6582114 15.7524914,28.2068971 21.6976914,28.2068971 C33.4589143,28.2068971 43.0281943,37.7761771 43.0281943,49.5374" id="Fill-1" fill="#FDB915" mask="url(#mask-2)"></path>
        </g>
    </g>
</svg>