<?xml version="1.0" encoding="UTF-8"?>
<svg width="64px" height="64px" viewBox="0 0 64 64" version="1.1" xmlns="http://www.w3.org/2000/svg" xmlns:xlink="http://www.w3.org/1999/xlink">
    <title>Icon/Large/Quotation/Positive</title>
    <g id="Icon/Large/Quotation/Positive" stroke="none" stroke-width="1" fill="none" fill-rule="evenodd" fill-opacity="0.1">
        <path d="M14.3157895,27.9089697 C11.4366316,27.9098118 8.624,28.7788644 6.24673684,30.4024434 C7.70947368,24.1649697 10.3107368,19.8188644 12.8715789,16.8100223 C16.7267368,12.2803381 20.3056842,10.8858118 20.3056842,10.8858118 C21.6084211,10.3864434 22.2602105,8.92539074 21.76,7.6226539 C21.3776842,6.62391706 20.4075789,5.9746539 19.3389474,6.00075916 C19.0265263,6.00918021 18.7191579,6.07486442 18.4311579,6.19528548 C18.4311579,6.19528548 13.5890526,8.16918021 9.02315789,13.5342328 C4.45642105,18.8992855 0,27.7868644 0,41.3826539 C0,41.5056013 0.00842105263,41.6293907 0.0261052632,41.7506539 C-0.235789474,49.6529697 5.95873684,56.271075 13.8602105,56.5329697 C14.0117895,56.5380223 14.1633684,56.5405486 14.3157895,56.5405486 C22.2223158,56.5405486 28.6315789,50.1312855 28.6315789,42.2247592 C28.6315789,34.3182328 22.2223158,27.9089697 14.3157895,27.9089697 M64,42.2247592 C64,50.1312855 57.5907368,56.5405486 49.6842105,56.5405486 C49.5317895,56.5405486 49.3802105,56.5380223 49.2286316,56.5329697 C41.3271579,56.271075 35.1326316,49.6529697 35.3945263,41.7506539 C35.3768421,41.6293907 35.3684211,41.5056013 35.3684211,41.3826539 C35.3684211,27.7868644 39.8248421,18.8992855 44.3915789,13.5342328 C48.9574737,8.16918021 53.7995789,6.19528548 53.7995789,6.19528548 C54.0875789,6.07486442 54.3949474,6.00918021 54.7073684,6.00075916 C55.776,5.9746539 56.7461053,6.62391706 57.1284211,7.6226539 C57.6286316,8.92539074 56.9768421,10.3864434 55.6741053,10.8858118 C55.6741053,10.8858118 52.0951579,12.2803381 48.24,16.8100223 C45.6791579,19.8188644 43.0778947,24.1649697 41.6151579,30.4024434 C43.9924211,28.7788644 46.8050526,27.9098118 49.6842105,27.9089697 C57.5907368,27.9089697 64,34.3182328 64,42.2247592" id="Fill-1" fill="#0096D8"></path>
    </g>
</svg>