<svg width="56" height="44" xmlns="http://www.w3.org/2000/svg"><path d="M19.076 0a.625.625 0 01.05 1.249c-.115.006-8.664.448-13.322 7.405-.835 1.248-2.937 4.858-3.92 10.76l-.015.108c-.228 1.48-.38 3.278-.468 5.149 2.092-4.328 6.524-7.314 11.653-7.314 7.145 0 12.936 5.792 12.936 12.936 0 7.145-5.791 12.936-12.936 12.936-6.882 0-12.506-5.375-12.91-12.156-.265-3.345-.185-8.167.415-11.494.063-.35.13-.649.2-.907.618-3.562 1.804-7.424 4.007-10.714C9.792.451 18.699.015 19.076.001zM49.09 0a.625.625 0 01.05 1.249c-.114.006-8.664.448-13.321 7.405-.836 1.248-2.938 4.858-3.921 10.76l-.015.108c-.227 1.48-.378 3.278-.467 5.149 2.092-4.328 6.524-7.314 11.653-7.314 7.144 0 12.936 5.792 12.936 12.936 0 7.145-5.792 12.936-12.936 12.936-6.882 0-12.507-5.375-12.91-12.156-.265-3.345-.185-8.167.415-11.494.063-.35.13-.649.199-.907.619-3.562 1.804-7.424 4.007-10.714C39.807.451 48.714.015 49.09.001z" fill="#ECB25E" fill-rule="evenodd"/></svg>