<?xml version="1.0" encoding="UTF-8"?>
<svg width="32px" height="32px" viewBox="0 0 32 32" version="1.1" xmlns="http://www.w3.org/2000/svg" xmlns:xlink="http://www.w3.org/1999/xlink">
    <title>Icon/Medium/Closure/Positive</title>
    <g id="Icon/Medium/Closure/Positive" stroke="none" stroke-width="1" fill="none" fill-rule="evenodd">
        <g id="Closure" stroke="#15224B">
            <circle id="Oval" stroke-width="2" fill="#FFFFFF" cx="16" cy="16" r="15"></circle>
            <path d="M21.2852116,10.7147884 C21.5495665,10.9791433 21.5699015,11.3951127 21.3462166,11.6827929 L21.2852116,11.7518783 L17.037,16 L21.2852116,20.2481217 C21.5715961,20.5345062 21.5715961,20.9988272 21.2852116,21.2852116 C21.0208567,21.5495665 20.6048873,21.5699015 20.3172071,21.3462166 L20.2481217,21.2852116 L16,17.037 L11.7518783,21.2852116 C11.4654938,21.5715961 11.0011728,21.5715961 10.7147884,21.2852116 C10.4504335,21.0208567 10.4300985,20.6048873 10.6537834,20.3172071 L10.7147884,20.2481217 L14.963,16 L10.7147884,11.7518783 C10.4284039,11.4654938 10.4284039,11.0011728 10.7147884,10.7147884 C10.9791433,10.4504335 11.3951127,10.4300985 11.6827929,10.6537834 L11.7518783,10.7147884 L16,14.963 L20.2481217,10.7147884 C20.5345062,10.4284039 20.9988272,10.4284039 21.2852116,10.7147884 Z" id="Combined-Shape" stroke-width="0.5" fill="#15224B"></path>
        </g>
    </g>
</svg>