<?xml version="1.0" encoding="UTF-8"?>
<svg width="7px" height="12px" viewBox="0 0 7 12" version="1.1" xmlns="http://www.w3.org/2000/svg" xmlns:xlink="http://www.w3.org/1999/xlink">
    <title>Icon/Small/Arrow left/Positive Copy</title>
    <g id="Desktop" stroke="none" stroke-width="1" fill="none" fill-rule="evenodd">
        <g id="05.01_The-Latest_News" transform="translate(-819.000000, -1498.000000)" fill="#15224B">
            <g id="Button/Large-secondry/Text/Default" transform="translate(608.000000, 1493.000000)">
                <g id="Combined-Shape" transform="translate(206.000000, 3.000000)">
                    <g transform="translate(5.250000, 2.250000)">
                        <path d="M1.19621165,0.147051761 L1.28033009,0.219669914 L6.28033009,5.21966991 C6.30753558,5.24687541 6.33221409,5.27565098 6.3543656,5.30570495 L6.28033009,5.21966991 C6.31910677,5.2584466 6.35274974,5.30041297 6.38125898,5.34472444 C6.39513906,5.36629949 6.40779192,5.38841018 6.41922996,5.41097855 C6.42305659,5.4185377 6.42659672,5.425825 6.43001187,5.43315613 C6.44197459,5.4587995 6.45253348,5.4853595 6.46151882,5.51232871 C6.46590795,5.52551974 6.46984313,5.53852386 6.47341779,5.5516059 C6.47987828,5.57521514 6.48520996,5.59934723 6.48934092,5.62364367 C6.49126745,5.634975 6.49293233,5.64633818 6.49433622,5.65772739 C6.49775908,5.68544871 6.49963745,5.7134796 6.49995241,5.7415248 C6.50005354,5.75080196 6.49998998,5.75982843 6.49976452,5.76885161 C6.4991703,5.7931618 6.49735121,5.81785458 6.49431731,5.84242595 C6.49227,5.85892729 6.48975891,5.87493188 6.48672901,5.89085724 C6.48338608,5.90850564 6.47925136,5.92663867 6.47443647,5.94462753 C6.4696381,5.96253528 6.46423295,5.98010664 6.45816839,5.99749921 C6.44979665,6.02149885 6.4402095,6.04507164 6.42937597,6.06820533 C6.42495622,6.07766091 6.42008534,6.08750947 6.41498497,6.09726932 C6.41347572,6.10015168 6.41226554,6.10243337 6.41104276,6.10471009 L6.35294824,6.19621165 L6.35294824,6.19621165 L6.28033009,6.28033009 L1.28033009,11.2803301 C0.987436867,11.5732233 0.512563133,11.5732233 0.219669914,11.2803301 C-0.0465966484,11.0140635 -0.0708026996,10.5973998 0.147051761,10.3037883 L0.219669914,10.2196699 L4.689,5.75 L0.219669914,1.28033009 C-0.0732233047,0.987436867 -0.0732233047,0.512563133 0.219669914,0.219669914 C0.485936477,-0.0465966484 0.902600159,-0.0708026996 1.19621165,0.147051761 Z"></path>
                    </g>
                </g>
            </g>
        </g>
    </g>
</svg>