<?xml version="1.0" encoding="UTF-8"?>
<svg width="16px" height="16px" viewBox="0 0 16 16" version="1.1" xmlns="http://www.w3.org/2000/svg" xmlns:xlink="http://www.w3.org/1999/xlink">
    <title>Icon/Mini/Event/Negative</title>
    <g id="Icon/Mini/Event/Negative" stroke="none" stroke-width="1" fill="none" fill-rule="evenodd">
        <g id="Group-8" transform="translate(1.000000, 0.500000)" fill="#FFFFFF">
            <path d="M3.35734,5.37528 C3.35734,3.24328 5.09174,1.50888 7.22374,1.50888 C9.35554,1.50888 11.08994,3.24328 11.08994,5.37528 C11.08994,6.30488 10.76974,7.17128 10.16374,7.88108 C10.16294,7.88208 10.16194,7.88328 10.16114,7.88408 C10.13994,7.90888 8.04294,10.36008 7.31814,11.05128 C7.25874,11.10788 7.18794,11.10808 7.12854,11.05128 C6.54934,10.49868 4.42354,8.04388 4.29074,7.89048 C4.28874,7.88768 4.28654,7.88488 4.28414,7.88208 C3.67794,7.17188 3.35734,6.30488 3.35734,5.37528 M3.14554,8.87248 C3.30074,9.05408 5.30834,11.40048 6.08694,12.14368 C6.40014,12.44228 6.81154,12.59168 7.22314,12.59168 C7.63454,12.59168 8.04614,12.44228 8.35954,12.14368 C9.24614,11.29808 11.22534,8.96288 11.30974,8.86328 C11.31214,8.86048 11.31454,8.85748 11.31694,8.85428 C12.14374,7.88248 12.59894,6.64728 12.59894,5.37528 C12.59894,2.41128 10.18754,8e-05 7.22374,8e-05 C4.25974,8e-05 1.84834,2.41128 1.84834,5.37528 C1.84834,6.64808 2.30394,7.88368 3.13154,8.85608 C3.13594,8.86188 3.14054,8.86708 3.14554,8.87248" id="Fill-1"></path>
            <path d="M6.53986,4.7327 C6.65026,4.6087 6.82766,4.4663 7.22366,4.4663 C7.61966,4.4663 7.79706,4.6087 7.90726,4.7327 C8.04846,4.8913 8.13266,5.1317 8.13266,5.3753 C8.13266,5.6189 8.04846,5.8591 7.90726,6.0179 C7.79706,6.1419 7.61966,6.2843 7.22366,6.2843 C6.82766,6.2843 6.65026,6.1419 6.53986,6.0179 C6.39886,5.8591 6.31466,5.6189 6.31466,5.3753 C6.31466,5.1317 6.39886,4.8913 6.53986,4.7327 M7.22366,7.7933 C7.93806,7.7933 8.59826,7.5115 9.03526,7.0201 C9.42626,6.5801 9.64166,5.9959 9.64166,5.3753 C9.64166,4.7547 9.42626,4.1705 9.03526,3.7305 C8.59826,3.2391 7.93806,2.9573 7.22366,2.9573 C6.50926,2.9573 5.84906,3.2391 5.41206,3.7305 C5.02106,4.1705 4.80566,4.7545 4.80566,5.3753 C4.80566,5.9959 5.02106,6.5801 5.41206,7.0201 C5.84906,7.5115 6.50926,7.7933 7.22366,7.7933" id="Fill-3"></path>
            <path d="M11.43146,9.12988 C11.35726,9.10848 11.27706,9.13168 11.22586,9.18968 C11.01246,9.43188 10.72046,9.76208 10.39886,10.12048 C10.35186,10.17308 10.33566,10.24668 10.35686,10.31408 C10.37806,10.38148 10.43326,10.43268 10.50206,10.44888 C12.18246,10.84408 12.93826,11.44508 12.93826,11.74568 C12.93826,12.23868 10.99406,13.39408 7.22366,13.39408 C3.45326,13.39408 1.50906,12.23868 1.50906,11.74568 C1.50906,11.44448 2.26626,10.84268 3.94966,10.44728 C4.01846,10.43128 4.07346,10.37988 4.09466,10.31248 C4.11586,10.24508 4.09986,10.17148 4.05266,10.11888 C3.73246,9.76268 3.43826,9.43188 3.22266,9.18868 C3.17126,9.13088 3.09126,9.10788 3.01746,9.12908 C1.07166,9.69128 5.99999998e-05,10.62048 5.99999998e-05,11.74568 C5.99999998e-05,12.73748 0.80646,13.56528 2.33246,14.13968 C3.64046,14.63188 5.37766,14.90308 7.22366,14.90308 C9.06966,14.90308 10.80666,14.63188 12.11486,14.13968 C13.64066,13.56528 14.44726,12.73768 14.44726,11.74568 C14.44726,10.62148 13.37626,9.69248 11.43146,9.12988" id="Fill-5"></path>
        </g>
    </g>
</svg>