<?xml version="1.0" encoding="UTF-8"?>
<svg width="16px" height="16px" viewBox="0 0 16 16" version="1.1" xmlns="http://www.w3.org/2000/svg" xmlns:xlink="http://www.w3.org/1999/xlink">
    <title>Icon/Mini/News/Negative</title>
    <g id="Icon/Mini/News/Negative" stroke="none" stroke-width="1" fill="none" fill-rule="evenodd">
        <g id="Group-7" transform="translate(0.000000, 1.500000)" fill="#FFFFFF">
            <path d="M3.73195062,8.36611286 L4.81995062,8.36611286 L4.81995062,7.34319857 L3.73195062,7.34319857 L3.73195062,8.36611286 Z M5.57353086,5.92582714 L2.97817284,5.92582714 C2.56276543,5.92601286 2.22459259,6.24377 2.22459259,6.63451286 L2.22459259,9.07461286 C2.22459259,9.46535571 2.56276543,9.78311286 2.97817284,9.78311286 L5.57353086,9.78311286 C5.9891358,9.78311286 6.32730864,9.46535571 6.32730864,9.07461286 L6.32730864,6.63451286 C6.32730864,6.24377 5.9891358,5.92601286 5.57353086,5.92582714 L5.57353086,5.92582714 Z" id="Fill-1"></path>
            <path d="M10.7641877,8.36603857 L7.91144691,8.36603857 C7.70996543,8.36269571 7.5209284,8.43493857 7.3769284,8.56642429 C7.23253333,8.69846714 7.15134815,8.87526714 7.14858272,9.06451 C7.14581728,9.25375286 7.2214716,9.43278143 7.36171852,9.56853857 C7.50216296,9.70429571 7.69021235,9.78043857 7.9100642,9.78322429 L10.7614222,9.78322429 L10.7722864,9.78322429 C11.1829531,9.78322429 11.5199407,9.47196714 11.5256691,9.08456714 C11.5315951,8.69401 11.1983605,8.37142429 10.7641877,8.36603857" id="Fill-3"></path>
            <path d="M12.2351407,4.29219143 L12.2351407,10.1176771 C12.2292148,10.50842 12.5626469,10.83082 12.9780543,10.8362057 C13.1759802,10.8382486 13.3699556,10.7678629 13.5141531,10.63582 C13.6585481,10.5039629 13.7395358,10.3269771 13.7424988,10.1202771 L13.7424988,4.90300571 L14.1010173,4.90300571 C14.3054617,4.90300571 14.4597333,5.04804857 14.4597333,5.24007714 L14.4597333,10.4688629 C14.4597333,11.0488486 13.9763753,11.5032914 13.3594864,11.5032914 L2.60748642,11.5032914 C1.99059753,11.5032914 1.50723951,11.0488486 1.50723951,10.4688629 L1.50723951,1.75422 C1.50723951,1.56219143 1.66151111,1.41714857 1.86595556,1.41714857 L11.8766222,1.41714857 C12.0810667,1.41714857 12.2351407,1.56219143 12.2351407,1.75422 L12.2351407,4.09459143 C12.2252642,4.16033429 12.2252642,4.22663429 12.2351407,4.29219143 M14.1010173,3.48582 L13.7424988,3.48582 L13.7424988,1.75422 C13.7424988,0.78702 12.905363,-3.71428571e-05 11.8766222,-3.71428571e-05 L1.86595556,-3.71428571e-05 C0.837017284,-3.71428571e-05 7.90123457e-05,0.78702 7.90123457e-05,1.75422 L7.90123457e-05,10.4688629 C7.90123457e-05,11.8206771 1.16965926,12.9202914 2.60748642,12.9202914 L13.3594864,12.9202914 C14.7973136,12.9202914 15.9670914,11.8206771 15.9670914,10.4688629 L15.9670914,5.24007714 C15.9670914,4.27287714 15.1299556,3.48582 14.1010173,3.48582" id="Fill-4"></path>
            <path d="M10.7641877,5.92590143 L7.91144691,5.92590143 C7.70996543,5.92311571 7.5209284,5.99480143 7.3769284,6.12647286 C7.23253333,6.25833 7.15134815,6.43531571 7.14858272,6.62455857 C7.14581728,6.81380143 7.2214716,6.99283 7.36171852,7.12840143 C7.50216296,7.26415857 7.69021235,7.34048714 7.9100642,7.34308714 L10.7614222,7.34308714 C10.7649778,7.34308714 10.7687309,7.34308714 10.772484,7.34308714 C10.9696198,7.34308714 11.1556938,7.27214429 11.297521,7.14270143 C11.441916,7.01065857 11.5229037,6.83385857 11.5256691,6.64461571 C11.5315951,6.25387286 11.1983605,5.93147286 10.7641877,5.92590143" id="Fill-5"></path>
            <path d="M10.7641877,3.13729 L2.9794963,3.13729 C2.77761975,3.13469 2.58897778,3.20619 2.44497778,3.33786143 C2.30058272,3.46971857 2.21959506,3.64651857 2.21675182,3.83576143 C2.2109037,4.22650429 2.54413827,4.54890429 2.97811358,4.55447571 L10.7614222,4.55447571 C10.7649778,4.55447571 10.7685333,4.55447571 10.7722864,4.55447571 C11.1829531,4.55447571 11.5199407,4.24321857 11.525747,3.85600429 C11.5315951,3.46526143 11.1983605,3.14286143 10.7641877,3.13729" id="Fill-6"></path>
        </g>
    </g>
</svg>