<?xml version="1.0" encoding="UTF-8"?>
<svg width="16px" height="16px" viewBox="0 0 16 16" version="1.1" xmlns="http://www.w3.org/2000/svg" xmlns:xlink="http://www.w3.org/1999/xlink">
    <title>Icon/Mini/Partner updates/Positive</title>
    <g id="Icon/Mini/Partner-updates/Positive" stroke="none" stroke-width="1" fill="none" fill-rule="evenodd">
        <g id="Group-7" transform="translate(0.000000, 2.500000)" fill="#191659">
            <path d="M6.35806154,8.94897231 L6.28310769,8.85574154 L6.16716923,8.88601846 C5.86476923,8.96558769 5.56421538,9.00601846 5.27381538,9.00601846 C3.31781538,9.00601846 1.72643077,7.41444923 1.72643077,5.45844923 C1.72643077,3.50244923 3.31781538,1.91088 5.27381538,1.91088 C7.23,1.91088 8.82138462,3.50244923 8.82138462,5.45844923 C8.82138462,6.13598769 8.62643077,6.79728 8.25775385,7.37032615 L8.18224615,7.48737231 L8.274,7.59204923 C8.59449231,7.95721846 8.99787692,8.24983385 9.44058462,8.43851077 L9.58163077,8.49888 L9.66655385,8.37094154 C10.2431077,7.50417231 10.5477231,6.49709538 10.5477231,5.45844923 C10.5477231,2.55038769 8.18187692,0.184541538 5.27381538,0.184541538 C2.36575385,0.184541538 9.23076923e-05,2.55038769 9.23076923e-05,5.45844923 C9.23076923e-05,8.36651077 2.36575385,10.7323569 5.27381538,10.7323569 C6.00286154,10.7323569 6.71455385,10.5809723 7.38950769,10.2824492 L7.68193846,10.1530338 L7.42366154,9.96454154 C7.02341538,9.67211077 6.66489231,9.33038769 6.35806154,8.94897231" id="Fill-1"></path>
            <path d="M10.7023754,0.184615385 C9.97351385,0.184615385 9.26219077,0.335630769 8.58816,0.633784615 L8.29554462,0.763015385 L8.55400615,0.951692308 C8.94003692,1.23341538 9.29652923,1.57569231 9.61388308,1.96892308 L9.68883692,2.06196923 L9.80459077,2.03132308 C10.1075446,1.95138462 10.40976,1.91095385 10.7023754,1.91095385 C12.65856,1.91095385 14.2499446,3.50233846 14.2499446,5.45833846 C14.2499446,7.41452308 12.65856,9.00590769 10.7023754,9.00590769 C8.74637538,9.00590769 7.15499077,7.41452308 7.15499077,5.45833846 C7.15499077,4.78283077 7.34920615,4.12301538 7.71677538,3.55033846 L7.79191385,3.43310769 L7.69997538,3.32861538 C7.36988308,2.95347692 6.97776,2.66769231 6.53486769,2.47956923 L6.39382154,2.41956923 L6.30908308,2.54713846 C5.73308308,3.41353846 5.42865231,4.42024615 5.42865231,5.45833846 C5.42865231,8.3664 7.79449846,10.7322462 10.7023754,10.7322462 C13.6104369,10.7322462 15.9762831,8.3664 15.9762831,5.45833846 C15.9762831,2.55046154 13.6104369,0.184615385 10.7023754,0.184615385" id="Fill-4"></path>
        </g>
    </g>
</svg>