<?xml version="1.0" encoding="UTF-8"?>
<svg width="16px" height="16px" viewBox="0 0 16 16" version="1.1" xmlns="http://www.w3.org/2000/svg" xmlns:xlink="http://www.w3.org/1999/xlink">
    <title>Icon/Mini/Thought leadership/Negative</title>
    <g id="Icon/Mini/Thought-leadership/Negative" stroke="none" stroke-width="1" fill="none" fill-rule="evenodd">
        <g id="Group-3" transform="translate(0.000000, 0.500000)" fill="#FFFFFF">
            <path d="M10.31902,9.31514 L10.85622,12.45334 L8.05622,10.97794 C7.93782,10.91474 7.80782,10.88314 7.67802,10.88314 C7.54842,10.88314 7.41902,10.91474 7.30122,10.97754 L4.50062,12.45334 L5.03842,9.30994 C5.07622,9.04794 4.98202,8.78414 4.79102,8.60854 L2.52462,6.39254 L5.66162,5.92294 C5.92082,5.88814 6.14722,5.72774 6.26822,5.49194 L7.67822,2.65494 L9.08962,5.49434 C9.20962,5.72774 9.43582,5.88794 9.69202,5.92234 L12.83202,6.39254 L10.57002,8.60434 C10.37442,8.78414 10.28042,9.04794 10.31902,9.31514 M15.31882,5.58774 C15.23082,5.30154 14.99182,5.09014 14.68882,5.03494 L10.32782,4.38814 L8.40942,0.47754 C8.28262,0.19574 8.01302,0.01294 7.70542,0.00034 L7.69602,-5.99999998e-05 L7.68662,0.00054 C7.64322,0.00274 7.57782,0.00794 7.52602,0.02294 C7.27322,0.07294 7.05722,0.24194 6.95002,0.47154 L5.02882,4.38814 L0.66122,5.03594 C0.36482,5.09014 0.12602,5.30154 0.03842,5.58594 C-0.05318,5.87314 0.02182,6.18354 0.23542,6.39694 L3.35862,9.46474 L2.63782,13.78874 C2.58702,14.09094 2.70742,14.39174 2.95362,14.57454 C3.20162,14.75594 3.52462,14.78234 3.79882,14.64194 L7.67822,12.59134 L11.56022,14.64334 C11.67602,14.70254 11.80082,14.73174 11.92542,14.73174 C12.09362,14.73174 12.26122,14.67834 12.40442,14.57354 C12.64922,14.39174 12.76962,14.09094 12.71902,13.78914 L11.99822,9.46474 L15.12262,6.39574 C15.33502,6.18334 15.40982,5.87294 15.31882,5.58774" id="Fill-1"></path>
        </g>
    </g>
</svg>